<?xml version="1.0" standalone="no"?>
<!DOCTYPE svg PUBLIC "-//W3C//DTD SVG 20010904//EN"
 "http://www.w3.org/TR/2001/REC-SVG-20010904/DTD/svg10.dtd">
<svg version="1.0" xmlns="http://www.w3.org/2000/svg"
 width="700.000000pt" height="437.000000pt" viewBox="0 0 700.000000 437.000000"
 preserveAspectRatio="xMidYMid meet">
<metadata>
Created by potrace 1.16, written by Peter Selinger 2001-2019
</metadata>
<g transform="translate(0.000000,437.000000) scale(0.100000,-0.100000)"
fill="#000000" stroke="none">
<path d="M1050 2440 c0 -5 5 -10 11 -10 5 0 7 5 4 10 -3 6 -8 10 -11 10 -2 0
-4 -4 -4 -10z"/>
<path d="M1538 2433 c6 -2 18 -2 25 0 6 3 1 5 -13 5 -14 0 -19 -2 -12 -5z"/>
<path d="M1000 2420 c0 -5 -6 -10 -14 -10 -18 0 -76 -32 -76 -42 0 -5 -5 -8
-12 -8 -20 0 -108 -99 -108 -120 0 -11 -6 -30 -12 -41 -10 -17 -10 -23 0 -26
6 -3 12 -13 12 -24 0 -11 6 -29 13 -41 18 -30 84 -98 97 -98 5 0 10 -4 10 -10
0 -5 11 -12 25 -16 29 -7 33 -34 9 -58 -14 -15 -10 -16 49 -16 68 0 137 18
117 30 -7 5 -3 12 14 23 26 17 206 194 206 202 0 3 -27 5 -60 5 -33 0 -60 -4
-60 -10 0 -5 -9 -10 -20 -10 -11 0 -20 -4 -20 -8 0 -5 -11 -15 -25 -22 -14 -7
-25 -19 -25 -27 0 -7 -4 -13 -8 -13 -5 0 -34 -25 -66 -55 -50 -47 -61 -53 -75
-42 -116 82 -157 183 -115 282 18 45 75 103 127 130 44 23 55 35 33 35 -9 0
-16 -4 -16 -10z"/>
<path d="M1304 2326 c74 -71 119 -107 145 -115 41 -12 91 -15 91 -5 0 11 -175
176 -212 200 -26 17 -52 24 -85 24 l-47 0 108 -104z"/>
<path d="M1594 2415 c11 -8 25 -15 31 -15 6 0 17 -9 25 -20 8 -11 19 -20 25
-20 13 0 54 -43 80 -85 22 -34 26 -156 6 -163 -6 -2 -11 -10 -11 -17 0 -17
-45 -64 -99 -103 -24 -18 -39 -32 -33 -32 17 0 112 52 112 61 0 5 7 9 15 9 8
0 15 4 15 9 0 4 15 23 32 42 31 31 32 38 32 107 0 40 -4 76 -9 80 -6 4 -22 23
-37 43 -15 20 -44 45 -65 56 -21 11 -55 30 -76 42 -43 24 -72 28 -43 6z"/>
<path d="M1960 2192 l0 -239 48 -6 c26 -3 53 -1 59 5 9 7 12 50 11 151 0 97 3
142 11 145 6 2 11 -7 11 -22 0 -14 3 -26 8 -26 4 0 15 -21 25 -48 48 -121 77
-186 91 -194 6 -4 30 -8 54 -8 37 0 45 4 62 33 11 17 20 40 20 50 0 9 5 17 10
17 6 0 10 6 10 13 0 7 11 35 24 63 13 27 29 66 37 87 24 67 32 36 30 -107 -3
-152 -1 -156 56 -156 66 0 63 -11 63 246 l0 234 -95 0 c-78 0 -95 -3 -95 -15
0 -8 -4 -23 -9 -33 -10 -20 -16 -35 -67 -159 -20 -51 -42 -93 -48 -93 -6 0
-17 15 -25 33 -7 17 -24 56 -37 85 -13 29 -24 59 -24 67 0 7 -4 17 -10 20 -5
3 -10 15 -10 26 0 10 -4 19 -9 19 -5 0 -11 10 -13 23 -3 21 -8 22 -95 25 l-93
3 0 -239z"/>
<path d="M2832 2418 c-7 -7 -12 -18 -12 -25 0 -7 -8 -27 -18 -45 -10 -18 -38
-80 -61 -138 -50 -121 -79 -188 -92 -212 -21 -41 -12 -49 49 -46 l57 3 25 48
25 48 102 -2 c56 -1 106 -5 110 -8 5 -3 17 -24 28 -46 20 -38 23 -40 74 -43
63 -4 78 6 60 39 -24 48 -29 59 -29 74 0 8 -4 15 -10 15 -5 0 -10 7 -10 16 0
9 -7 30 -16 47 -30 58 -34 67 -34 81 0 8 -3 16 -7 18 -12 5 -43 76 -43 98 0
11 -4 20 -8 20 -5 0 -14 16 -22 35 l-14 35 -71 0 c-42 0 -76 -5 -83 -12z m99
-149 c22 -43 49 -111 49 -124 0 -12 -14 -15 -70 -15 l-70 0 6 28 c4 15 11 29
16 30 4 2 8 15 8 28 0 13 4 24 9 24 5 0 12 12 15 26 7 26 24 28 37 3z"/>
<path d="M3270 2184 l0 -245 44 4 c61 7 66 12 66 62 0 73 3 75 87 75 103 0
133 -17 133 -77 0 -54 6 -60 61 -57 27 2 54 6 59 9 6 4 10 31 10 62 0 48 -4
60 -28 83 -28 26 -32 50 -9 50 34 0 51 148 25 207 -30 67 -51 73 -263 73
l-185 0 0 -246z m314 120 c10 -9 16 -33 16 -59 0 -39 -4 -46 -27 -58 -37 -18
-159 -22 -178 -7 -10 9 -15 32 -15 76 l0 64 94 0 c73 0 98 -4 110 -16z"/>
<path d="M3849 2405 c-20 -13 -39 -32 -43 -42 -4 -10 -7 -92 -6 -183 0 -163 1
-165 26 -192 16 -16 42 -29 67 -33 71 -13 241 -12 291 1 72 19 86 36 86 106
l0 58 -60 0 c-53 0 -60 -2 -60 -19 0 -34 -38 -51 -112 -51 -36 0 -78 4 -92 10
-26 9 -26 10 -26 129 0 136 -5 130 98 136 74 5 112 -7 112 -35 0 -18 6 -20 70
-20 l70 0 0 33 c0 19 -7 48 -15 65 -27 53 -60 62 -224 61 -136 0 -148 -2 -182
-24z"/>
<path d="M4342 2188 l3 -243 35 2 c81 6 79 4 82 101 l3 87 115 0 115 0 0 -88
c0 -99 2 -102 81 -95 l39 3 3 215 c1 118 0 225 -3 238 -5 19 -12 22 -54 22
-58 0 -61 -5 -61 -95 0 -99 5 -95 -126 -95 l-114 0 0 79 c0 109 -1 111 -66
111 l-54 0 2 -242z"/>
<path d="M4899 2418 c0 -10 0 -317 1 -463 0 -6 75 -11 199 -12 192 -3 200 -2
206 17 4 11 4 34 0 50 l-6 29 -142 3 -142 3 -3 39 c-2 21 1 43 6 48 6 6 68 11
139 12 l128 1 3 38 3 37 -135 0 c-134 0 -136 0 -142 24 -3 13 -4 37 -2 52 l3
29 143 3 c78 1 142 6 143 10 0 4 2 16 4 27 2 11 2 30 -2 43 -5 22 -6 22 -204
22 -152 0 -199 -3 -200 -12z"/>
<path d="M5376 2414 c-3 -9 -6 -114 -6 -234 0 -162 3 -220 13 -228 6 -5 33
-10 60 -10 l47 -1 0 57 c0 31 4 63 8 70 10 14 172 16 172 1 0 -5 7 -9 15 -9
20 0 35 -32 35 -75 0 -36 0 -36 43 -34 76 3 77 4 77 69 0 50 -4 63 -25 84 -14
14 -25 27 -25 30 0 3 11 16 25 30 22 22 25 34 25 97 0 85 -19 132 -63 154 -45
23 -392 22 -401 -1z m324 -116 c28 -30 27 -89 -2 -107 -31 -19 -175 -23 -193
-4 -15 15 -21 113 -8 126 3 4 46 7 94 7 78 0 91 -3 109 -22z"/>
<path d="M1440 2385 c0 -2 39 -43 87 -90 82 -80 117 -104 130 -91 5 5 -71 86
-81 86 -3 0 -28 23 -56 50 -42 42 -80 63 -80 45z"/>
<path d="M5951 2344 c0 -11 3 -14 6 -6 3 7 2 16 -1 19 -3 4 -6 -2 -5 -13z"/>
<path d="M1063 2323 c-16 -6 -17 -69 -2 -78 18 -12 57 4 64 26 10 32 -28 63
-62 52z"/>
<path d="M1430 2154 c-14 -7 -72 -58 -128 -114 l-104 -100 56 0 c63 0 57 -4
198 131 50 48 86 89 82 92 -16 9 -79 4 -104 -9z"/>
<path d="M1630 2160 c0 -5 -6 -10 -13 -10 -7 0 -52 -38 -100 -85 -72 -70 -84
-85 -65 -85 15 0 54 30 116 89 50 49 92 92 92 95 0 3 -7 6 -15 6 -8 0 -15 -4
-15 -10z"/>
<path d="M1575 1950 c-19 -8 -19 -9 3 -9 12 -1 22 4 22 9 0 6 -1 10 -2 9 -2 0
-12 -4 -23 -9z"/>
</g>
</svg>
